{
  "accessors": [
    {
      "bufferView": 2,
      "componentType": 5126,
      "count": 65532,
      "max": [
        5110,
        4719.2880859375,
        2900
      ],
      "min": [
        -5120,
        3368.838623046875,
        -5120
      ],
      "type": "VEC3"
    },
    {
      "bufferView": 2,
      "byteOffset": 786384,
      "componentType": 5126,
      "count": 65532,
      "max": [
        0.88987076282501221,
        -0.24328206479549408,
        0.87700474262237549
      ],
      "min": [
        -0.94493299722671509,
        -0.9999922513961792,
        -0.96936261653900146
      ],
      "type": "VEC3"
    },
    {
      "bufferView": 3,
      "componentType": 5126,
      "count": 65532,
      "max": [
        1,
        0.90732991695404053,
        0.1526169627904892,
        1
      ],
      "min": [
        0.32712632417678833,
        -0.9449806809425354,
        -0.10262893885374069,
        1
      ],
      "type": "VEC4"
    },
    {
      "bufferView": 1,
      "componentType": 5126,
      "count": 65532,
      "max": [
        1,
        0.78396898508071899
      ],
      "min": [
        0,
        0
      ],
      "type": "VEC2"
    },
    {
      "bufferView": 0,
      "componentType": 5125,
      "count": 373017,
      "max": [
        65531
      ],
      "min": [
        0
      ],
      "type": "SCALAR"
    },
    {
      "bufferView": 2,
      "byteOffset": 1572768,
      "componentType": 5126,
      "count": 65532,
      "max": [
        5110,
        4640.9912109375,
        5110
      ],
      "min": [
        -5120,
        2095.73779296875,
        -3200
      ],
      "type": "VEC3"
    },
    {
      "bufferView": 2,
      "byteOffset": 2359152,
      "componentType": 5126,
      "count": 65532,
      "max": [
        0.9780879020690918,
        -0.15679076313972473,
        0.96656352281570435
      ],
      "min": [
        -0.9770851731300354,
        -0.99999910593032837,
        -0.97191178798675537
      ],
      "type": "VEC3"
    },
    {
      "bufferView": 3,
      "byteOffset": 1048512,
      "componentType": 5126,
      "count": 65532,
      "max": [
        1,
        0.98402047157287598,
        0.14607249200344086,
        1
      ],
      "min": [
        0.17805527150630951,
        -0.97932279109954834,
        -0.18897680938243866,
        1
      ],
      "type": "VEC4"
    },
    {
      "bufferView": 1,
      "byteOffset": 524256,
      "componentType": 5126,
      "count": 65532,
      "max": [
        1,
        1
      ],
      "min": [
        0,
        0.18768300116062164
      ],
      "type": "VEC2"
    },
    {
      "bufferView": 0,
      "byteOffset": 1492068,
      "componentType": 5125,
      "count": 345153,
      "max": [
        65531
      ],
      "min": [
        0
      ],
      "type": "SCALAR"
    },
    {
      "bufferView": 2,
      "byteOffset": 3145536,
      "componentType": 5126,
      "count": 65532,
      "max": [
        5110,
        4563.97705078125,
        3320
      ],
      "min": [
        -5110,
        2095.73779296875,
        -1920
      ],
      "type": "VEC3"
    },
    {
      "bufferView": 2,
      "byteOffset": 3931920,
      "componentType": 5126,
      "count": 65532,
      "max": [
        0.98248732089996338,
        -0.14078542590141296,
        0.98660570383071899
      ],
      "min": [
        -0.97907626628875732,
        -0.99998253583908081,
        -0.98475944995880127
      ],
      "type": "VEC3"
    },
    {
      "bufferView": 3,
      "byteOffset": 2097024,
      "componentType": 5126,
      "count": 65532,
      "max": [
        1,
        0.98496103286743164,
        0.13820835947990417,
        1
      ],
      "min": [
        0.17277705669403076,
        -0.98370105028152466,
        -0.13032017648220062,
        1
      ],
      "type": "VEC4"
    },
    {
      "bufferView": 1,
      "byteOffset": 1048512,
      "componentType": 5126,
      "count": 65532,
      "max": [
        1,
        0.82502400875091553
      ],
      "min": [
        0.00097799999639391899,
        0.31280499696731567
      ],
      "type": "VEC2"
    },
    {
      "bufferView": 0,
      "byteOffset": 2872680,
      "componentType": 5125,
      "count": 339429,
      "max": [
        65531
      ],
      "min": [
        0
      ],
      "type": "SCALAR"
    },
    {
      "bufferView": 2,
      "byteOffset": 4718304,
      "componentType": 5126,
      "count": 65532,
      "max": [
        5110,
        4547.86083984375,
        5070.625
      ],
      "min": [
        -5110,
        2099.36279296875,
        -640
      ],
      "type": "VEC3"
    },
    {
      "bufferView": 2,
      "byteOffset": 5504688,
      "componentType": 5126,
      "count": 65532,
      "max": [
        0.98395383358001709,
        -0.11666718870401382,
        0.97856199741363525
      ],
      "min": [
        -0.9877583384513855,
        -0.99998003244400024,
        -0.98023343086242676
      ],
      "type": "VEC3"
    },
    {
      "bufferView": 3,
      "byteOffset": 3145536,
      "componentType": 5126,
      "count": 65532,
      "max": [
        1,
        0.98588699102401733,
        0.15019528567790985,
        1
      ],
      "min": [
        0.12108723819255829,
        -0.99264192581176758,
        -0.097072355449199677,
        1
      ],
      "type": "VEC4"
    },
    {
      "bufferView": 1,
      "byteOffset": 1572768,
      "componentType": 5126,
      "count": 65532,
      "max": [
        1,
        0.99615097045898438
      ],
      "min": [
        0.00097799999639391899,
        0.43792799115180969
      ],
      "type": "VEC2"
    },
    {
      "bufferView": 0,
      "byteOffset": 4230396,
      "componentType": 5125,
      "count": 331470,
      "max": [
        65531
      ],
      "min": [
        0
      ],
      "type": "SCALAR"
    },
    {
      "bufferView": 2,
      "byteOffset": 6291072,
      "componentType": 5126,
      "count": 65532,
      "max": [
        5110,
        4593.08740234375,
        5110
      ],
      "min": [
        -5120,
        2224.838134765625,
        640
      ],
      "type": "VEC3"
    },
    {
      "bufferView": 2,
      "byteOffset": 7077456,
      "componentType": 5126,
      "count": 65532,
      "max": [
        0.97595959901809692,
        -0.16477063298225403,
        0.97113871574401855
      ],
      "min": [
        -0.97784328460693359,
        -0.99999719858169556,
        -0.97777348756790161
      ],
      "type": "VEC3"
    },
    {
      "bufferView": 3,
      "byteOffset": 4194048,
      "componentType": 5126,
      "count": 65532,
      "max": [
        1,
        0.97636079788208008,
        0.1595001220703125,
        1
      ],
      "min": [
        0.19582013785839081,
        -0.98063993453979492,
        -0.11821138858795166,
        1
      ],
      "type": "VEC4"
    },
    {
      "bufferView": 1,
      "byteOffset": 2097024,
      "componentType": 5126,
      "count": 65532,
      "max": [
        1,
        1
      ],
      "min": [
        0,
        0.56304997205734253
      ],
      "type": "VEC2"
    },
    {
      "bufferView": 0,
      "byteOffset": 5556276,
      "componentType": 5125,
      "count": 335925,
      "max": [
        65531
      ],
      "min": [
        0
      ],
      "type": "SCALAR"
    },
    {
      "bufferView": 2,
      "byteOffset": 7863840,
      "componentType": 5126,
      "count": 31145,
      "max": [
        5110,
        4634.31640625,
        5110
      ],
      "min": [
        -5110,
        3512.772705078125,
        2560
      ],
      "type": "VEC3"
    },
    {
      "bufferView": 2,
      "byteOffset": 8237580,
      "componentType": 5126,
      "count": 31145,
      "max": [
        0.90544027090072632,
        -0.29500553011894226,
        0.9240230917930603
      ],
      "min": [
        -0.80302423238754272,
        -0.99999988079071045,
        -0.78062087297439575
      ],
      "type": "VEC3"
    },
    {
      "bufferView": 3,
      "byteOffset": 5242560,
      "componentType": 5126,
      "count": 31145,
      "max": [
        1,
        0.935921311378479,
        0.10728016495704651,
        1
      ],
      "min": [
        0.35220921039581299,
        -0.81381827592849731,
        -0.086323201656341553,
        1
      ],
      "type": "VEC4"
    },
    {
      "bufferView": 1,
      "byteOffset": 2621280,
      "componentType": 5126,
      "count": 31145,
      "max": [
        1,
        1
      ],
      "min": [
        0.00097799999639391899,
        0.75073301792144775
      ],
      "type": "VEC2"
    },
    {
      "bufferView": 0,
      "byteOffset": 6899976,
      "componentType": 5125,
      "count": 158448,
      "max": [
        31144
      ],
      "min": [
        0
      ],
      "type": "SCALAR"
    }
  ],
  "asset": {
    "extras": {
      "author": "juhyt80 (https://sketchfab.com/juhyt80)",
      "license": "CC-BY-4.0 (http://creativecommons.org/licenses/by/4.0/)",
      "source": "https://sketchfab.com/models/6a4c6f4bd2f24cb1a3f63adf426b2774",
      "title": "Rocky hell terrain"
    },
    "generator": "Sketchfab-3.42.2",
    "version": "2.0"
  },
  "bufferViews": [
    {
      "buffer": 0,
      "byteLength": 7533768,
      "byteOffset": 0,
      "name": "floatBufferViews",
      "target": 34963
    },
    {
      "buffer": 0,
      "byteLength": 2870440,
      "byteOffset": 7533768,
      "byteStride": 8,
      "name": "floatBufferViews",
      "target": 34962
    },
    {
      "buffer": 0,
      "byteLength": 8611320,
      "byteOffset": 10404208,
      "byteStride": 12,
      "name": "floatBufferViews",
      "target": 34962
    },
    {
      "buffer": 0,
      "byteLength": 5740880,
      "byteOffset": 19015528,
      "byteStride": 16,
      "name": "floatBufferViews",
      "target": 34962
    }
  ],
  "buffers": [
    {
      "byteLength": 24756408,
      "uri": "scene.bin"
    }
  ],
  "images": [
    {
      "uri": "textures/terrain_mtl_baseColor.png"
    }
  ],
  "materials": [
    {
      "doubleSided": true,
      "name": "terrain_mtl",
      "pbrMetallicRoughness": {
        "baseColorFactor": [
          1,
          1,
          1,
          1
        ],
        "baseColorTexture": {
          "index": 0,
          "texCoord": 0
        },
        "metallicFactor": 0,
        "roughnessFactor": 0.59999999999999998
      }
    }
  ],
  "meshes": [
    {
      "primitives": [
        {
          "attributes": {
            "NORMAL": 1,
            "POSITION": 0,
            "TANGENT": 2,
            "TEXCOORD_0": 3
          },
          "indices": 4,
          "material": 0,
          "mode": 4
        }
      ]
    },
    {
      "primitives": [
        {
          "attributes": {
            "NORMAL": 6,
            "POSITION": 5,
            "TANGENT": 7,
            "TEXCOORD_0": 8
          },
          "indices": 9,
          "material": 0,
          "mode": 4
        }
      ]
    },
    {
      "primitives": [
        {
          "attributes": {
            "NORMAL": 11,
            "POSITION": 10,
            "TANGENT": 12,
            "TEXCOORD_0": 13
          },
          "indices": 14,
          "material": 0,
          "mode": 4
        }
      ]
    },
    {
      "primitives": [
        {
          "attributes": {
            "NORMAL": 16,
            "POSITION": 15,
            "TANGENT": 17,
            "TEXCOORD_0": 18
          },
          "indices": 19,
          "material": 0,
          "mode": 4
        }
      ]
    },
    {
      "primitives": [
        {
          "attributes": {
            "NORMAL": 21,
            "POSITION": 20,
            "TANGENT": 22,
            "TEXCOORD_0": 23
          },
          "indices": 24,
          "material": 0,
          "mode": 4
        }
      ]
    },
    {
      "primitives": [
        {
          "attributes": {
            "NORMAL": 26,
            "POSITION": 25,
            "TANGENT": 27,
            "TEXCOORD_0": 28
          },
          "indices": 29,
          "material": 0,
          "mode": 4
        }
      ]
    }
  ],
  "nodes": [
    {
      "children": [
        1
      ],
      "name": "RootNode (gltf orientation matrix)",
      "rotation": [
        -0.70710678118654746,
        -0,
        -0,
        0.70710678118654757
      ]
    },
    {
      "children": [
        2
      ],
      "matrix": [
        1,
        0,
        0,
        0,
        0,
        0,
        -1,
        0,
        0,
        1,
        0,
        0,
        0,
        3412.5205078125,
        3402.5087890625,
        1
      ],
      "name": "RootNode (model correction matrix)"
    },
    {
      "children": [
        3,
        4,
        5,
        6,
        7,
        8
      ],
      "name": "mesh.obj.cleaner.materialmerger.gles"
    },
    {
      "mesh": 0,
      "name": ""
    },
    {
      "mesh": 1,
      "name": ""
    },
    {
      "mesh": 2,
      "name": ""
    },
    {
      "mesh": 3,
      "name": ""
    },
    {
      "mesh": 4,
      "name": ""
    },
    {
      "mesh": 5,
      "name": ""
    }
  ],
  "samplers": [
    {
      "magFilter": 9729,
      "minFilter": 9987,
      "wrapS": 10497,
      "wrapT": 10497
    }
  ],
  "scene": 0,
  "scenes": [
    {
      "name": "OSG_Scene",
      "nodes": [
        0
      ]
    }
  ],
  "textures": [
    {
      "sampler": 0,
      "source": 0
    }
  ]
}

