{
  "accessors": [
    {
      "bufferView": 2,
      "componentType": 5126,
      "count": 768,
      "max": [
        1,
        0.25079101324081421,
        0.23213300108909607
      ],
      "min": [
        -1,
        -0.25079101324081421,
        -0.23213300108909607
      ],
      "type": "VEC3"
    },
    {
      "bufferView": 2,
      "byteOffset": 9216,
      "componentType": 5126,
      "count": 768,
      "max": [
        0.79219400882720947,
        0.99938660860061646,
        0.99999487400054932
      ],
      "min": [
        -0.74772274494171143,
        -0.99944746494293213,
        -0.99999600648880005
      ],
      "type": "VEC3"
    },
    {
      "bufferView": 3,
      "componentType": 5126,
      "count": 768,
      "max": [
        0.99999213218688965,
        0.99960309267044067,
        0.99999839067459106,
        1
      ],
      "min": [
        -0.99998372793197632,
        -0.99953186511993408,
        -0.99998563528060913,
        1
      ],
      "type": "VEC4"
    },
    {
      "bufferView": 1,
      "componentType": 5126,
      "count": 768,
      "max": [
        0.99967801570892334,
        0.98833900690078735
      ],
      "min": [
        0.00032229500357061625,
        0.00032229500357061625
      ],
      "type": "VEC2"
    },
    {
      "bufferView": 0,
      "componentType": 5125,
      "count": 2928,
      "max": [
        767
      ],
      "min": [
        0
      ],
      "type": "SCALAR"
    },
    {
      "bufferView": 2,
      "byteOffset": 18432,
      "componentType": 5126,
      "count": 1073,
      "max": [
        0.82685399055480957,
        0.21600000560283661,
        -0.18577399849891663
      ],
      "min": [
        0.7760549783706665,
        0.094440698623657227,
        -0.23736099898815155
      ],
      "type": "VEC3"
    },
    {
      "bufferView": 2,
      "byteOffset": 31308,
      "componentType": 5126,
      "count": 1073,
      "max": [
        1,
        1,
        1
      ],
      "min": [
        -1,
        -1,
        -1
      ],
      "type": "VEC3"
    },
    {
      "bufferView": 3,
      "byteOffset": 12288,
      "componentType": 5126,
      "count": 1073,
      "max": [
        1,
        0.99891149997711182,
        1,
        1
      ],
      "min": [
        -1,
        -0.99835681915283203,
        -1,
        -1
      ],
      "type": "VEC4"
    },
    {
      "bufferView": 1,
      "byteOffset": 6144,
      "componentType": 5126,
      "count": 1073,
      "max": [
        0.99962300062179565,
        0.97044801712036133
      ],
      "min": [
        0.00037739000981673598,
        0.00037739000981673598
      ],
      "type": "VEC2"
    },
    {
      "bufferView": 0,
      "byteOffset": 11712,
      "componentType": 5125,
      "count": 4386,
      "max": [
        1072
      ],
      "min": [
        0
      ],
      "type": "SCALAR"
    },
    {
      "bufferView": 2,
      "byteOffset": 44184,
      "componentType": 5126,
      "count": 1073,
      "max": [
        -0.89881300926208496,
        0.15823699533939362,
        0.24358899891376495
      ],
      "min": [
        -0.94961202144622803,
        0.036678198724985123,
        0.19200100004673004
      ],
      "type": "VEC3"
    },
    {
      "bufferView": 2,
      "byteOffset": 57060,
      "componentType": 5126,
      "count": 1073,
      "max": [
        1,
        1,
        1
      ],
      "min": [
        -1,
        -1,
        -1
      ],
      "type": "VEC3"
    },
    {
      "bufferView": 3,
      "byteOffset": 29456,
      "componentType": 5126,
      "count": 1073,
      "max": [
        1,
        0.99894613027572632,
        1,
        1
      ],
      "min": [
        -1,
        -0.99851137399673462,
        -1,
        -1
      ],
      "type": "VEC4"
    },
    {
      "bufferView": 1,
      "byteOffset": 14728,
      "componentType": 5126,
      "count": 1073,
      "max": [
        0.99962300062179565,
        0.97044801712036133
      ],
      "min": [
        0.00037739000981673598,
        0.00037739000981673598
      ],
      "type": "VEC2"
    },
    {
      "bufferView": 0,
      "byteOffset": 29256,
      "componentType": 5125,
      "count": 4386,
      "max": [
        1072
      ],
      "min": [
        0
      ],
      "type": "SCALAR"
    },
    {
      "bufferView": 2,
      "byteOffset": 69936,
      "componentType": 5126,
      "count": 1073,
      "max": [
        -0.93687999248504639,
        0.1728149950504303,
        -0.17975300550460815
      ],
      "min": [
        -0.98767900466918945,
        0.051256101578474045,
        -0.23134100437164307
      ],
      "type": "VEC3"
    },
    {
      "bufferView": 2,
      "byteOffset": 82812,
      "componentType": 5126,
      "count": 1073,
      "max": [
        1,
        1,
        1
      ],
      "min": [
        -1,
        -1,
        -1
      ],
      "type": "VEC3"
    },
    {
      "bufferView": 3,
      "byteOffset": 46624,
      "componentType": 5126,
      "count": 1073,
      "max": [
        1,
        0.99894881248474121,
        1,
        1
      ],
      "min": [
        -1,
        -0.99851208925247192,
        -1,
        -1
      ],
      "type": "VEC4"
    },
    {
      "bufferView": 1,
      "byteOffset": 23312,
      "componentType": 5126,
      "count": 1073,
      "max": [
        0.99962300062179565,
        0.97044801712036133
      ],
      "min": [
        0.00037739000981673598,
        0.00037739000981673598
      ],
      "type": "VEC2"
    },
    {
      "bufferView": 0,
      "byteOffset": 46800,
      "componentType": 5125,
      "count": 4386,
      "max": [
        1072
      ],
      "min": [
        0
      ],
      "type": "SCALAR"
    },
    {
      "bufferView": 2,
      "byteOffset": 95688,
      "componentType": 5126,
      "count": 1073,
      "max": [
        0.84285497665405273,
        0.21986199915409088,
        0.22383800148963928
      ],
      "min": [
        0.79205602407455444,
        0.098303601145744324,
        0.17225000262260437
      ],
      "type": "VEC3"
    },
    {
      "bufferView": 2,
      "byteOffset": 108564,
      "componentType": 5126,
      "count": 1073,
      "max": [
        1,
        1,
        1
      ],
      "min": [
        -1,
        -1,
        -1
      ],
      "type": "VEC3"
    },
    {
      "bufferView": 3,
      "byteOffset": 63792,
      "componentType": 5126,
      "count": 1073,
      "max": [
        1,
        0.99890929460525513,
        1,
        1
      ],
      "min": [
        -1,
        -0.9984889030456543,
        -1,
        -1
      ],
      "type": "VEC4"
    },
    {
      "bufferView": 1,
      "byteOffset": 31896,
      "componentType": 5126,
      "count": 1073,
      "max": [
        0.99962300062179565,
        0.97044801712036133
      ],
      "min": [
        0.00037739000981673598,
        0.00037739000981673598
      ],
      "type": "VEC2"
    },
    {
      "bufferView": 0,
      "byteOffset": 64344,
      "componentType": 5125,
      "count": 4386,
      "max": [
        1072
      ],
      "min": [
        0
      ],
      "type": "SCALAR"
    }
  ],
  "asset": {
    "extras": {
      "author": "Irina.Tuchna (https://sketchfab.com/Irina.Tuchna)",
      "license": "CC-BY-4.0 (http://creativecommons.org/licenses/by/4.0/)",
      "source": "https://sketchfab.com/3d-models/rope-bridge-80e930f984174748bd8ef78a084b7686",
      "title": "Rope bridge"
    },
    "generator": "Sketchfab-6.9.0",
    "version": "2.0"
  },
  "bufferViews": [
    {
      "buffer": 0,
      "byteLength": 81888,
      "byteOffset": 0,
      "name": "floatBufferViews",
      "target": 34963
    },
    {
      "buffer": 0,
      "byteLength": 40480,
      "byteOffset": 81888,
      "byteStride": 8,
      "name": "floatBufferViews",
      "target": 34962
    },
    {
      "buffer": 0,
      "byteLength": 121440,
      "byteOffset": 122368,
      "byteStride": 12,
      "name": "floatBufferViews",
      "target": 34962
    },
    {
      "buffer": 0,
      "byteLength": 80960,
      "byteOffset": 243808,
      "byteStride": 16,
      "name": "floatBufferViews",
      "target": 34962
    }
  ],
  "buffers": [
    {
      "byteLength": 324768,
      "uri": "scene.bin"
    }
  ],
  "images": [
    {
      "uri": "textures/DefaultMaterial_baseColor.png"
    },
    {
      "uri": "textures/DefaultMaterial_metallicRoughness.png"
    },
    {
      "uri": "textures/DefaultMaterial_normal.png"
    },
    {
      "uri": "textures/1LOW_baseColor.png"
    },
    {
      "uri": "textures/1LOW_metallicRoughness.png"
    },
    {
      "uri": "textures/1LOW_normal.png"
    }
  ],
  "materials": [
    {
      "alphaMode": "BLEND",
      "doubleSided": true,
      "name": "DefaultMaterial",
      "normalTexture": {
        "index": 2,
        "scale": 1,
        "texCoord": 0
      },
      "pbrMetallicRoughness": {
        "baseColorFactor": [
          1,
          1,
          1,
          1
        ],
        "baseColorTexture": {
          "index": 0,
          "texCoord": 0
        },
        "metallicFactor": 1,
        "metallicRoughnessTexture": {
          "index": 1,
          "texCoord": 0
        },
        "roughnessFactor": 1
      }
    },
    {
      "alphaMode": "BLEND",
      "doubleSided": true,
      "name": "1LOW",
      "normalTexture": {
        "index": 5,
        "scale": 1,
        "texCoord": 0
      },
      "occlusionTexture": {
        "index": 4,
        "strength": 1,
        "texCoord": 0
      },
      "pbrMetallicRoughness": {
        "baseColorFactor": [
          1,
          1,
          1,
          1
        ],
        "baseColorTexture": {
          "index": 3,
          "texCoord": 0
        },
        "metallicFactor": 1,
        "metallicRoughnessTexture": {
          "index": 4,
          "texCoord": 0
        },
        "roughnessFactor": 1
      }
    }
  ],
  "meshes": [
    {
      "name": "defaultMaterial",
      "primitives": [
        {
          "attributes": {
            "NORMAL": 1,
            "POSITION": 0,
            "TANGENT": 2,
            "TEXCOORD_0": 3
          },
          "indices": 4,
          "material": 1,
          "mode": 4
        }
      ]
    },
    {
      "name": "defaultMaterial",
      "primitives": [
        {
          "attributes": {
            "NORMAL": 6,
            "POSITION": 5,
            "TANGENT": 7,
            "TEXCOORD_0": 8
          },
          "indices": 9,
          "material": 0,
          "mode": 4
        }
      ]
    },
    {
      "name": "defaultMaterial",
      "primitives": [
        {
          "attributes": {
            "NORMAL": 11,
            "POSITION": 10,
            "TANGENT": 12,
            "TEXCOORD_0": 13
          },
          "indices": 14,
          "material": 0,
          "mode": 4
        }
      ]
    },
    {
      "name": "defaultMaterial",
      "primitives": [
        {
          "attributes": {
            "NORMAL": 16,
            "POSITION": 15,
            "TANGENT": 17,
            "TEXCOORD_0": 18
          },
          "indices": 19,
          "material": 0,
          "mode": 4
        }
      ]
    },
    {
      "name": "defaultMaterial",
      "primitives": [
        {
          "attributes": {
            "NORMAL": 21,
            "POSITION": 20,
            "TANGENT": 22,
            "TEXCOORD_0": 23
          },
          "indices": 24,
          "material": 0,
          "mode": 4
        }
      ]
    }
  ],
  "nodes": [
    {
      "children": [
        1
      ],
      "name": "RootNode (gltf orientation matrix)",
      "rotation": [
        -0.70710678118654746,
        -0,
        -0,
        0.70710678118654757
      ]
    },
    {
      "children": [
        2
      ],
      "name": "RootNode (model correction matrix)"
    },
    {
      "children": [
        3,
        5,
        7,
        9,
        11
      ],
      "matrix": [
        1,
        0,
        0,
        0,
        0,
        -4.3711390063094768e-08,
        0.999999999999999,
        0,
        0,
        -0.999999999999999,
        -4.3711390063094768e-08,
        0,
        0,
        0,
        0,
        1
      ],
      "name": "Collada visual scene group"
    },
    {
      "children": [
        4
      ],
      "name": "bridge"
    },
    {
      "mesh": 0,
      "name": "defaultMaterial"
    },
    {
      "children": [
        6
      ],
      "name": "light"
    },
    {
      "mesh": 1,
      "name": "defaultMaterial"
    },
    {
      "children": [
        8
      ],
      "name": "light"
    },
    {
      "mesh": 2,
      "name": "defaultMaterial"
    },
    {
      "children": [
        10
      ],
      "name": "light"
    },
    {
      "mesh": 3,
      "name": "defaultMaterial"
    },
    {
      "children": [
        12
      ],
      "name": "light"
    },
    {
      "mesh": 4,
      "name": "defaultMaterial"
    }
  ],
  "samplers": [
    {
      "magFilter": 9729,
      "minFilter": 9987,
      "wrapS": 10497,
      "wrapT": 10497
    }
  ],
  "scene": 0,
  "scenes": [
    {
      "name": "OSG_Scene",
      "nodes": [
        0
      ]
    }
  ],
  "textures": [
    {
      "sampler": 0,
      "source": 0
    },
    {
      "sampler": 0,
      "source": 1
    },
    {
      "sampler": 0,
      "source": 2
    },
    {
      "sampler": 0,
      "source": 3
    },
    {
      "sampler": 0,
      "source": 4
    },
    {
      "sampler": 0,
      "source": 5
    }
  ]
}

