{
  "accessors": [
    {
      "bufferView": 2,
      "componentType": 5126,
      "count": 52304,
      "max": [
        1.1202900409698486,
        -0.77055501937866211,
        1.0138399600982666
      ],
      "min": [
        -1.2045300006866455,
        -1.9183700084686279,
        -0.91055601835250854
      ],
      "type": "VEC3"
    },
    {
      "bufferView": 2,
      "byteOffset": 627648,
      "componentType": 5126,
      "count": 52304,
      "max": [
        0.99949097633361816,
        0.99999213218688965,
        0.99951362609863281
      ],
      "min": [
        -0.99991685152053833,
        -0.98725545406341553,
        -0.99988901615142822
      ],
      "type": "VEC3"
    },
    {
      "bufferView": 3,
      "componentType": 5126,
      "count": 52304,
      "max": [
        0.99991238117218018,
        0.99957096576690674,
        0.99985229969024658,
        1
      ],
      "min": [
        -0.99993526935577393,
        -0.99994564056396484,
        -0.99976629018783569,
        -1
      ],
      "type": "VEC4"
    },
    {
      "bufferView": 3,
      "byteOffset": 836864,
      "componentType": 5126,
      "count": 52304,
      "max": [
        0.75294119119644165,
        0.75294119119644165,
        0.75294119119644165,
        1
      ],
      "min": [
        0.75294119119644165,
        0.75294119119644165,
        0.75294119119644165,
        1
      ],
      "type": "VEC4"
    },
    {
      "bufferView": 1,
      "componentType": 5126,
      "count": 52304,
      "max": [
        0.99791997671127319,
        0.99809402227401733
      ],
      "min": [
        0.0018560000462457538,
        0.0031640001107007265
      ],
      "type": "VEC2"
    },
    {
      "bufferView": 0,
      "componentType": 5125,
      "count": 242442,
      "max": [
        52303
      ],
      "min": [
        0
      ],
      "type": "SCALAR"
    },
    {
      "bufferView": 2,
      "byteOffset": 1255296,
      "componentType": 5126,
      "count": 58772,
      "max": [
        1.1190099716186523,
        -0.78091400861740112,
        1.0125299692153931
      ],
      "min": [
        -1.2338099479675293,
        -1.9236799478530884,
        -0.90384697914123535
      ],
      "type": "VEC3"
    },
    {
      "bufferView": 2,
      "byteOffset": 1960560,
      "componentType": 5126,
      "count": 58772,
      "max": [
        0.99872910976409912,
        0.99999111890792847,
        0.9995383620262146
      ],
      "min": [
        -0.99846309423446655,
        -0.95255345106124878,
        -0.99988454580307007
      ],
      "type": "VEC3"
    },
    {
      "bufferView": 3,
      "byteOffset": 1673728,
      "componentType": 5126,
      "count": 58772,
      "max": [
        0.99999779462814331,
        0.99900603294372559,
        0.99999970197677612,
        1
      ],
      "min": [
        -0.99998080730438232,
        -0.99915933609008789,
        -0.99993222951889038,
        -1
      ],
      "type": "VEC4"
    },
    {
      "bufferView": 3,
      "byteOffset": 2614080,
      "componentType": 5126,
      "count": 58772,
      "max": [
        0.75294119119644165,
        0.75294119119644165,
        0.75294119119644165,
        1
      ],
      "min": [
        0.75294119119644165,
        0.75294119119644165,
        0.75294119119644165,
        1
      ],
      "type": "VEC4"
    },
    {
      "bufferView": 1,
      "byteOffset": 418432,
      "componentType": 5126,
      "count": 58772,
      "max": [
        0.99788397550582886,
        0.99816501140594482
      ],
      "min": [
        0.0018520000157877803,
        0.0020930001046508551
      ],
      "type": "VEC2"
    },
    {
      "bufferView": 0,
      "byteOffset": 969768,
      "componentType": 5125,
      "count": 287742,
      "max": [
        58771
      ],
      "min": [
        0
      ],
      "type": "SCALAR"
    },
    {
      "bufferView": 2,
      "byteOffset": 2665824,
      "componentType": 5126,
      "count": 61352,
      "max": [
        1.135390043258667,
        -0.78336501121520996,
        1.0064400434494019
      ],
      "min": [
        -1.2056699991226196,
        -1.9023599624633789,
        -0.9170759916305542
      ],
      "type": "VEC3"
    },
    {
      "bufferView": 2,
      "byteOffset": 3402048,
      "componentType": 5126,
      "count": 61352,
      "max": [
        0.99882733821868896,
        0.99999076128005981,
        0.9995383620262146
      ],
      "min": [
        -0.99996966123580933,
        -0.94648689031600952,
        -0.99987733364105225
      ],
      "type": "VEC3"
    },
    {
      "bufferView": 3,
      "byteOffset": 3554432,
      "componentType": 5126,
      "count": 61352,
      "max": [
        0.99999415874481201,
        0.99994319677352905,
        0.99996072053909302,
        1
      ],
      "min": [
        -0.99985778331756592,
        -0.99971103668212891,
        -0.99992632865905762,
        -1
      ],
      "type": "VEC4"
    },
    {
      "bufferView": 3,
      "byteOffset": 4536064,
      "componentType": 5126,
      "count": 61352,
      "max": [
        0.75294119119644165,
        0.75294119119644165,
        0.75294119119644165,
        1
      ],
      "min": [
        0.75294119119644165,
        0.75294119119644165,
        0.75294119119644165,
        1
      ],
      "type": "VEC4"
    },
    {
      "bufferView": 1,
      "byteOffset": 888608,
      "componentType": 5126,
      "count": 61352,
      "max": [
        0.99741601943969727,
        0.99814099073410034
      ],
      "min": [
        0.0018459999701008201,
        0.0019549999851733446
      ],
      "type": "VEC2"
    },
    {
      "bufferView": 0,
      "byteOffset": 2120736,
      "componentType": 5125,
      "count": 293148,
      "max": [
        61351
      ],
      "min": [
        0
      ],
      "type": "SCALAR"
    },
    {
      "bufferView": 2,
      "byteOffset": 4138272,
      "componentType": 5126,
      "count": 54051,
      "max": [
        1.1104199886322021,
        -0.76890599727630615,
        1.0205700397491455
      ],
      "min": [
        -1.2322200536727905,
        -1.9849100112915039,
        -0.9195830225944519
      ],
      "type": "VEC3"
    },
    {
      "bufferView": 2,
      "byteOffset": 4786884,
      "componentType": 5126,
      "count": 54051,
      "max": [
        0.99969702959060669,
        0.99998778104782104,
        0.9980047345161438
      ],
      "min": [
        -0.99991708993911743,
        -0.9857642650604248,
        -0.9999879002571106
      ],
      "type": "VEC3"
    },
    {
      "bufferView": 3,
      "byteOffset": 5517696,
      "componentType": 5126,
      "count": 54051,
      "max": [
        0.99997532367706299,
        0.99995654821395874,
        0.99998599290847778,
        1
      ],
      "min": [
        -0.99999153614044189,
        -0.9998166561126709,
        -0.99995768070220947,
        -1
      ],
      "type": "VEC4"
    },
    {
      "bufferView": 3,
      "byteOffset": 6382512,
      "componentType": 5126,
      "count": 54051,
      "max": [
        0.75294119119644165,
        0.75294119119644165,
        0.75294119119644165,
        1
      ],
      "min": [
        0.75294119119644165,
        0.75294119119644165,
        0.75294119119644165,
        1
      ],
      "type": "VEC4"
    },
    {
      "bufferView": 1,
      "byteOffset": 1379424,
      "componentType": 5126,
      "count": 54051,
      "max": [
        0.99804198741912842,
        0.99815797805786133
      ],
      "min": [
        0.0018319999799132347,
        0.0018309999722987413
      ],
      "type": "VEC2"
    },
    {
      "bufferView": 0,
      "byteOffset": 3293328,
      "componentType": 5125,
      "count": 216447,
      "max": [
        54050
      ],
      "min": [
        0
      ],
      "type": "SCALAR"
    }
  ],
  "asset": {
    "extras": {
      "author": "simfris (https://sketchfab.com/simfris)",
      "license": "CC-BY-4.0 (http://creativecommons.org/licenses/by/4.0/)",
      "source": "https://sketchfab.com/3d-models/sand-hill-cd5bca365a054eb98c472d80ecd66435",
      "title": "Sand hill"
    },
    "generator": "Sketchfab-6.33.0",
    "version": "2.0"
  },
  "bufferViews": [
    {
      "buffer": 0,
      "byteLength": 4159116,
      "byteOffset": 0,
      "name": "floatBufferViews",
      "target": 34963
    },
    {
      "buffer": 0,
      "byteLength": 1811832,
      "byteOffset": 4159116,
      "byteStride": 8,
      "name": "floatBufferViews",
      "target": 34962
    },
    {
      "buffer": 0,
      "byteLength": 5435496,
      "byteOffset": 5970948,
      "byteStride": 12,
      "name": "floatBufferViews",
      "target": 34962
    },
    {
      "buffer": 0,
      "byteLength": 7247328,
      "byteOffset": 11406444,
      "byteStride": 16,
      "name": "floatBufferViews",
      "target": 34962
    }
  ],
  "buffers": [
    {
      "byteLength": 18653772,
      "uri": "scene.bin"
    }
  ],
  "extensionsRequired": [
    "KHR_materials_pbrSpecularGlossiness"
  ],
  "extensionsUsed": [
    "KHR_materials_pbrSpecularGlossiness"
  ],
  "materials": [
    {
      "doubleSided": true,
      "extensions": {
        "KHR_materials_pbrSpecularGlossiness": {
          "diffuseFactor": [
            0.4404641729196031,
            0.13255049413700665,
            0.021195856155784659,
            1
          ],
          "glossinessFactor": 0.40000000000000002,
          "specularFactor": [
            0,
            0,
            0
          ]
        }
      },
      "name": "material_0"
    },
    {
      "doubleSided": true,
      "extensions": {
        "KHR_materials_pbrSpecularGlossiness": {
          "diffuseFactor": [
            0.43965717384091879,
            0.13286832155381792,
            0.021219010376003562,
            1
          ],
          "glossinessFactor": 0.40000000000000002,
          "specularFactor": [
            0,
            0,
            0
          ]
        }
      },
      "name": "material_1"
    },
    {
      "doubleSided": true,
      "extensions": {
        "KHR_materials_pbrSpecularGlossiness": {
          "diffuseFactor": [
            0.43965717384091879,
            0.13286832155381792,
            0.021219010376003562,
            1
          ],
          "glossinessFactor": 0.40000000000000002,
          "specularFactor": [
            0,
            0,
            0
          ]
        }
      },
      "name": "material_2"
    },
    {
      "doubleSided": true,
      "extensions": {
        "KHR_materials_pbrSpecularGlossiness": {
          "diffuseFactor": [
            0.43965717384091879,
            0.13286832155381781,
            0.021219010376003562,
            1
          ],
          "glossinessFactor": 0.22190780159812304,
          "specularFactor": [
            0,
            0,
            0
          ]
        }
      },
      "name": "material_3"
    }
  ],
  "meshes": [
    {
      "primitives": [
        {
          "attributes": {
            "COLOR_0": 3,
            "NORMAL": 1,
            "POSITION": 0,
            "TANGENT": 2,
            "TEXCOORD_0": 4
          },
          "indices": 5,
          "material": 0,
          "mode": 4
        }
      ]
    },
    {
      "primitives": [
        {
          "attributes": {
            "COLOR_0": 9,
            "NORMAL": 7,
            "POSITION": 6,
            "TANGENT": 8,
            "TEXCOORD_0": 10
          },
          "indices": 11,
          "material": 1,
          "mode": 4
        }
      ]
    },
    {
      "primitives": [
        {
          "attributes": {
            "COLOR_0": 15,
            "NORMAL": 13,
            "POSITION": 12,
            "TANGENT": 14,
            "TEXCOORD_0": 16
          },
          "indices": 17,
          "material": 2,
          "mode": 4
        }
      ]
    },
    {
      "primitives": [
        {
          "attributes": {
            "COLOR_0": 21,
            "NORMAL": 19,
            "POSITION": 18,
            "TANGENT": 20,
            "TEXCOORD_0": 22
          },
          "indices": 23,
          "material": 3,
          "mode": 4
        }
      ]
    }
  ],
  "nodes": [
    {
      "children": [
        1
      ],
      "name": "RootNode (gltf orientation matrix)",
      "rotation": [
        -0.70710678118654746,
        -0,
        -0,
        0.70710678118654757
      ]
    },
    {
      "children": [
        2
      ],
      "matrix": [
        1.1102230246251565e-15,
        1,
        3.8302694349567901e-15,
        0,
        0.50122570991516113,
        -5.5511151231257827e-16,
        0.86531656980514526,
        0,
        0.86531656980514526,
        2.886579864025407e-15,
        -0.50122570991516113,
        0,
        0.59724283218383789,
        -1.3277102708816528,
        1.267277717590332,
        1
      ],
      "name": "RootNode (model correction matrix)"
    },
    {
      "children": [
        3,
        4,
        5,
        6
      ],
      "name": "texturedMesh.obj.cleaner.materialmerger.gles"
    },
    {
      "mesh": 0,
      "name": ""
    },
    {
      "mesh": 1,
      "name": ""
    },
    {
      "mesh": 2,
      "name": ""
    },
    {
      "mesh": 3,
      "name": ""
    }
  ],
  "scene": 0,
  "scenes": [
    {
      "name": "OSG_Scene",
      "nodes": [
        0
      ]
    }
  ]
}

