{
  "accessors": [
    {
      "bufferView": 2,
      "componentType": 5126,
      "count": 1533,
      "max": [
        14.28608512878418,
        13.259659767150879,
        32.724647521972656
      ],
      "min": [
        -17.217432022094727,
        -14.093917846679688,
        0
      ],
      "type": "VEC3"
    },
    {
      "bufferView": 2,
      "byteOffset": 18396,
      "componentType": 5126,
      "count": 1533,
      "max": [
        0.99997782707214355,
        0.99992537498474121,
        1
      ],
      "min": [
        -0.99990475177764893,
        -0.99995017051696777,
        -1
      ],
      "type": "VEC3"
    },
    {
      "bufferView": 3,
      "componentType": 5126,
      "count": 1533,
      "max": [
        0.99996346235275269,
        0.99999070167541504,
        0.99999988079071045,
        1
      ],
      "min": [
        -0.99891883134841919,
        -0.99994879961013794,
        -0.9964936375617981,
        -1
      ],
      "type": "VEC4"
    },
    {
      "bufferView": 1,
      "componentType": 5126,
      "count": 1533,
      "max": [
        0.99970912933349609,
        0.99174880981445312
      ],
      "min": [
        0.00029087750590406358,
        0.00029087750590406358
      ],
      "type": "VEC2"
    },
    {
      "bufferView": 0,
      "componentType": 5125,
      "count": 5016,
      "max": [
        1532
      ],
      "min": [
        0
      ],
      "type": "SCALAR"
    }
  ],
  "asset": {
    "extras": {
      "author": "Antoine Plurat (https://sketchfab.com/Corsaquet)",
      "license": "CC-BY-4.0 (http://creativecommons.org/licenses/by/4.0/)",
      "source": "https://sketchfab.com/3d-models/palm-tree-5de4bf05101e49ca8842e9b21e65fc07",
      "title": "Palm Tree"
    },
    "generator": "Sketchfab-8.47.0",
    "version": "2.0"
  },
  "bufferViews": [
    {
      "buffer": 0,
      "byteLength": 20064,
      "byteOffset": 0,
      "name": "floatBufferViews",
      "target": 34963
    },
    {
      "buffer": 0,
      "byteLength": 12264,
      "byteOffset": 20064,
      "byteStride": 8,
      "name": "floatBufferViews",
      "target": 34962
    },
    {
      "buffer": 0,
      "byteLength": 36792,
      "byteOffset": 32328,
      "byteStride": 12,
      "name": "floatBufferViews",
      "target": 34962
    },
    {
      "buffer": 0,
      "byteLength": 24528,
      "byteOffset": 69120,
      "byteStride": 16,
      "name": "floatBufferViews",
      "target": 34962
    }
  ],
  "buffers": [
    {
      "byteLength": 93648,
      "uri": "scene.bin"
    }
  ],
  "images": [
    {
      "uri": "textures/Material_baseColor.png"
    },
    {
      "uri": "textures/Material_metallicRoughness.png"
    },
    {
      "uri": "textures/Material_normal.png"
    }
  ],
  "materials": [
    {
      "alphaCutoff": 0.35436009217542519,
      "alphaMode": "MASK",
      "doubleSided": true,
      "emissiveFactor": [
        0,
        0,
        0
      ],
      "name": "Material",
      "normalTexture": {
        "index": 2,
        "scale": 0.5063644212587175,
        "texCoord": 0
      },
      "occlusionTexture": {
        "index": 1,
        "strength": 1,
        "texCoord": 0
      },
      "pbrMetallicRoughness": {
        "baseColorFactor": [
          1,
          1,
          1,
          1
        ],
        "baseColorTexture": {
          "index": 0,
          "texCoord": 0
        },
        "metallicFactor": 1,
        "metallicRoughnessTexture": {
          "index": 1,
          "texCoord": 0
        },
        "roughnessFactor": 1
      }
    }
  ],
  "meshes": [
    {
      "name": "Circle_Material_0",
      "primitives": [
        {
          "attributes": {
            "NORMAL": 1,
            "POSITION": 0,
            "TANGENT": 2,
            "TEXCOORD_0": 3
          },
          "indices": 4,
          "material": 0,
          "mode": 4
        }
      ]
    }
  ],
  "nodes": [
    {
      "children": [
        1
      ],
      "name": "RootNode (gltf orientation matrix)",
      "rotation": [
        -0.70710678118654746,
        -0,
        -0,
        0.70710678118654757
      ]
    },
    {
      "children": [
        2
      ],
      "matrix": [
        0.0042672292329370975,
        0,
        0,
        0,
        0,
        0.0042672292329370975,
        0,
        0,
        0,
        0,
        0.0042672292329370975,
        0,
        0,
        0,
        0,
        1
      ],
      "name": "RootNode (model correction matrix)"
    },
    {
      "children": [
        3
      ],
      "matrix": [
        1,
        0,
        0,
        0,
        0,
        0,
        1,
        0,
        0,
        -1,
        0,
        0,
        0,
        0,
        0,
        1
      ],
      "name": "2a659bd5b8184b0b887f9f54994141e8.fbx"
    },
    {
      "children": [
        4
      ],
      "name": "RootNode"
    },
    {
      "children": [
        5
      ],
      "matrix": [
        14.571411383603813,
        -1.7299191050999807e-15,
        27.546954824403642,
        0,
        27.546954824403613,
        -1.3621978125729402e-06,
        -14.571411383603797,
        0,
        1.2041157592954969e-06,
        31.163454055786101,
        -6.369366846363897e-07,
        0,
        -103.68556976318359,
        -91.958045959472656,
        1.3173475053918082e-05,
        1
      ],
      "name": "Circle"
    },
    {
      "mesh": 0,
      "name": "Circle_Material_0"
    }
  ],
  "samplers": [
    {
      "magFilter": 9729,
      "minFilter": 9987,
      "wrapS": 10497,
      "wrapT": 10497
    }
  ],
  "scene": 0,
  "scenes": [
    {
      "name": "OSG_Scene",
      "nodes": [
        0
      ]
    }
  ],
  "textures": [
    {
      "sampler": 0,
      "source": 0
    },
    {
      "sampler": 0,
      "source": 1
    },
    {
      "sampler": 0,
      "source": 2
    }
  ]
}

