{
  "accessors": [
    {
      "bufferView": 2,
      "componentType": 5126,
      "count": 105,
      "max": [
        -5.4033851623535156,
        -3.7964351177215576,
        2.0802280902862549
      ],
      "min": [
        -8.0540647506713867,
        -6.3789629936218262,
        0.08022800087928772
      ],
      "type": "VEC3"
    },
    {
      "bufferView": 2,
      "byteOffset": 1260,
      "componentType": 5126,
      "count": 105,
      "max": [
        0.96232074499130249,
        0.93834775686264038,
        0.45667806267738342
      ],
      "min": [
        -0.96232074499130249,
        -0.93834775686264038,
        0.27164611220359802
      ],
      "type": "VEC3"
    },
    {
      "bufferView": 1,
      "componentType": 5126,
      "count": 105,
      "max": [
        0.86398798227310181,
        0.4046739935874939
      ],
      "min": [
        0.049371998757123947,
        0.0093250004574656487
      ],
      "type": "VEC2"
    },
    {
      "bufferView": 0,
      "componentType": 5125,
      "count": 504,
      "max": [
        104
      ],
      "min": [
        0
      ],
      "type": "SCALAR"
    },
    {
      "bufferView": 2,
      "byteOffset": 2520,
      "componentType": 5126,
      "count": 439,
      "max": [
        -5.8963961601257324,
        4.9682521820068359,
        7.1909189224243164
      ],
      "min": [
        -7.1483640670776367,
        3.7125530242919922,
        5.9307441711425781
      ],
      "type": "VEC3"
    },
    {
      "bufferView": 2,
      "byteOffset": 7788,
      "componentType": 5126,
      "count": 439,
      "max": [
        0.99074763059616089,
        0.99336445331573486,
        0.99938565492630005
      ],
      "min": [
        -0.99074763059616089,
        -0.99336445331573486,
        -0.99938565492630005
      ],
      "type": "VEC3"
    },
    {
      "bufferView": 1,
      "byteOffset": 840,
      "componentType": 5126,
      "count": 439,
      "max": [
        0.43585100769996643,
        0.96744000911712646
      ],
      "min": [
        0.010751999914646149,
        0.69468498229980469
      ],
      "type": "VEC2"
    },
    {
      "bufferView": 0,
      "byteOffset": 2016,
      "componentType": 5125,
      "count": 2280,
      "max": [
        438
      ],
      "min": [
        0
      ],
      "type": "SCALAR"
    },
    {
      "bufferView": 2,
      "byteOffset": 13056,
      "componentType": 5126,
      "count": 441,
      "max": [
        8.9075040817260742,
        -4.3946499824523926,
        1.7261799573898315
      ],
      "min": [
        5.5347027778625488,
        -7.7673478126525879,
        1.2461329698562622
      ],
      "type": "VEC3"
    },
    {
      "bufferView": 2,
      "byteOffset": 18348,
      "componentType": 5126,
      "count": 441,
      "max": [
        1,
        0.99996936321258545,
        0.99999374151229858
      ],
      "min": [
        -1,
        -0.99996936321258545,
        -0.99999374151229858
      ],
      "type": "VEC3"
    },
    {
      "bufferView": 1,
      "byteOffset": 4352,
      "componentType": 5126,
      "count": 441,
      "max": [
        0.53665798902511597,
        0.94831198453903198
      ],
      "min": [
        0.0081669995561242104,
        0.66943901777267456
      ],
      "type": "VEC2"
    },
    {
      "bufferView": 0,
      "byteOffset": 11136,
      "componentType": 5125,
      "count": 2400,
      "max": [
        440
      ],
      "min": [
        0
      ],
      "type": "SCALAR"
    },
    {
      "bufferView": 2,
      "byteOffset": 23640,
      "componentType": 5126,
      "count": 1246,
      "max": [
        -5.040316104888916,
        4.7983489036560059,
        6.2721152305603027
      ],
      "min": [
        -7.8302950859069824,
        3.8824570178985596,
        0.28428798913955688
      ],
      "type": "VEC3"
    },
    {
      "bufferView": 2,
      "byteOffset": 38592,
      "componentType": 5126,
      "count": 1246,
      "max": [
        0.99982035160064697,
        0.99999600648880005,
        0.99971300363540649
      ],
      "min": [
        -0.99979114532470703,
        -0.9999961256980896,
        -1
      ],
      "type": "VEC3"
    },
    {
      "bufferView": 1,
      "byteOffset": 7880,
      "componentType": 5126,
      "count": 1246,
      "max": [
        0.987326979637146,
        0.77050602436065674
      ],
      "min": [
        0.12246699631214142,
        0.012470000423491001
      ],
      "type": "VEC2"
    },
    {
      "bufferView": 0,
      "byteOffset": 20736,
      "componentType": 5125,
      "count": 4692,
      "max": [
        1245
      ],
      "min": [
        0
      ],
      "type": "SCALAR"
    },
    {
      "bufferView": 2,
      "byteOffset": 53544,
      "componentType": 5126,
      "count": 1960,
      "max": [
        -5.7424650192260742,
        -4.2419881820678711,
        3.3299019336700439
      ],
      "min": [
        -7.8043208122253418,
        -6.2286171913146973,
        1.6546529531478882
      ],
      "type": "VEC3"
    },
    {
      "bufferView": 2,
      "byteOffset": 77064,
      "componentType": 5126,
      "count": 1960,
      "max": [
        1,
        0.98471486568450928,
        1
      ],
      "min": [
        -1,
        -0.98471486568450928,
        -1
      ],
      "type": "VEC3"
    },
    {
      "bufferView": 1,
      "byteOffset": 17848,
      "componentType": 5126,
      "count": 1960,
      "max": [
        0.8422819972038269,
        0.98087501525878906
      ],
      "min": [
        0.15759700536727905,
        0.53525900840759277
      ],
      "type": "VEC2"
    },
    {
      "bufferView": 0,
      "byteOffset": 39504,
      "componentType": 5125,
      "count": 9504,
      "max": [
        1959
      ],
      "min": [
        0
      ],
      "type": "SCALAR"
    },
    {
      "bufferView": 2,
      "byteOffset": 100584,
      "componentType": 5126,
      "count": 565,
      "max": [
        8.2211027145385742,
        -5.0731949806213379,
        4.1350412368774414
      ],
      "min": [
        6.2211031913757324,
        -7.0731348991394043,
        -0.084661997854709625
      ],
      "type": "VEC3"
    },
    {
      "bufferView": 2,
      "byteOffset": 107364,
      "componentType": 5126,
      "count": 565,
      "max": [
        1,
        1,
        1
      ],
      "min": [
        -1,
        -1,
        -1
      ],
      "type": "VEC3"
    },
    {
      "bufferView": 1,
      "byteOffset": 33528,
      "componentType": 5126,
      "count": 565,
      "max": [
        0.99001801013946533,
        0.93306899070739746
      ],
      "min": [
        0.024499999359250069,
        0.017379999160766602
      ],
      "type": "VEC2"
    },
    {
      "bufferView": 0,
      "byteOffset": 77520,
      "componentType": 5125,
      "count": 2634,
      "max": [
        564
      ],
      "min": [
        0
      ],
      "type": "SCALAR"
    }
  ],
  "asset": {
    "extras": {
      "author": "Luis Morales (https://sketchfab.com/Calamity-Artist)",
      "license": "CC-BY-4.0 (http://creativecommons.org/licenses/by/4.0/)",
      "source": "https://sketchfab.com/3d-models/alien-plants-835e04a4126e4b8f82e127c65566b1f3",
      "title": "Alien_Plants"
    },
    "generator": "Sketchfab-8.47.0",
    "version": "2.0"
  },
  "bufferViews": [
    {
      "buffer": 0,
      "byteLength": 88056,
      "byteOffset": 0,
      "name": "floatBufferViews",
      "target": 34963
    },
    {
      "buffer": 0,
      "byteLength": 38048,
      "byteOffset": 88056,
      "byteStride": 8,
      "name": "floatBufferViews",
      "target": 34962
    },
    {
      "buffer": 0,
      "byteLength": 114144,
      "byteOffset": 126104,
      "byteStride": 12,
      "name": "floatBufferViews",
      "target": 34962
    }
  ],
  "buffers": [
    {
      "byteLength": 240248,
      "uri": "scene.bin"
    }
  ],
  "images": [
    {
      "uri": "textures/StingrayPBS3SG_baseColor.png"
    },
    {
      "uri": "textures/StingrayPBS3SG_metallicRoughness.png"
    },
    {
      "uri": "textures/StingrayPBS4SG_baseColor.png"
    },
    {
      "uri": "textures/StingrayPBS5SG_baseColor.png"
    },
    {
      "uri": "textures/StingrayPBS5SG_metallicRoughness.png"
    },
    {
      "uri": "textures/StingrayPBS7SG_baseColor.png"
    },
    {
      "uri": "textures/StingrayPBS7SG_metallicRoughness.png"
    },
    {
      "uri": "textures/StingrayPBS8SG_metallicRoughness.png"
    }
  ],
  "materials": [
    {
      "doubleSided": true,
      "name": "StingrayPBS3SG",
      "pbrMetallicRoughness": {
        "baseColorFactor": [
          1,
          1,
          1,
          1
        ],
        "baseColorTexture": {
          "index": 0,
          "texCoord": 0
        },
        "metallicFactor": 1,
        "metallicRoughnessTexture": {
          "index": 1,
          "texCoord": 0
        },
        "roughnessFactor": 0.59999999999999998
      }
    },
    {
      "alphaMode": "BLEND",
      "doubleSided": true,
      "name": "StingrayPBS4SG",
      "pbrMetallicRoughness": {
        "baseColorFactor": [
          1,
          1,
          1,
          0.25354855669827675
        ],
        "baseColorTexture": {
          "index": 2,
          "texCoord": 0
        },
        "metallicFactor": 1,
        "metallicRoughnessTexture": {
          "index": 1,
          "texCoord": 0
        },
        "roughnessFactor": 0.59999999999999998
      }
    },
    {
      "doubleSided": true,
      "name": "StingrayPBS5SG",
      "pbrMetallicRoughness": {
        "baseColorFactor": [
          1,
          1,
          1,
          1
        ],
        "baseColorTexture": {
          "index": 3,
          "texCoord": 0
        },
        "metallicFactor": 1,
        "metallicRoughnessTexture": {
          "index": 4,
          "texCoord": 0
        },
        "roughnessFactor": 0.59999999999999998
      }
    },
    {
      "alphaMode": "BLEND",
      "doubleSided": true,
      "name": "StingrayPBS6SG",
      "pbrMetallicRoughness": {
        "baseColorFactor": [
          1,
          1,
          1,
          0.32244194105446805
        ],
        "baseColorTexture": {
          "index": 3,
          "texCoord": 0
        },
        "metallicFactor": 1,
        "metallicRoughnessTexture": {
          "index": 4,
          "texCoord": 0
        },
        "roughnessFactor": 0.59999999999999998
      }
    },
    {
      "doubleSided": true,
      "name": "StingrayPBS7SG",
      "pbrMetallicRoughness": {
        "baseColorFactor": [
          1,
          1,
          1,
          1
        ],
        "baseColorTexture": {
          "index": 5,
          "texCoord": 0
        },
        "metallicFactor": 1,
        "metallicRoughnessTexture": {
          "index": 6,
          "texCoord": 0
        },
        "roughnessFactor": 1
      }
    },
    {
      "alphaMode": "BLEND",
      "doubleSided": true,
      "name": "StingrayPBS8SG",
      "pbrMetallicRoughness": {
        "baseColorFactor": [
          1,
          1,
          1,
          0.18465517234208539
        ],
        "baseColorTexture": {
          "index": 5,
          "texCoord": 0
        },
        "metallicFactor": 1,
        "metallicRoughnessTexture": {
          "index": 7,
          "texCoord": 0
        },
        "roughnessFactor": 0.59999999999999998
      }
    }
  ],
  "meshes": [
    {
      "primitives": [
        {
          "attributes": {
            "NORMAL": 1,
            "POSITION": 0,
            "TEXCOORD_0": 2
          },
          "indices": 3,
          "material": 2,
          "mode": 4
        }
      ]
    },
    {
      "primitives": [
        {
          "attributes": {
            "NORMAL": 5,
            "POSITION": 4,
            "TEXCOORD_0": 6
          },
          "indices": 7,
          "material": 1,
          "mode": 4
        }
      ]
    },
    {
      "primitives": [
        {
          "attributes": {
            "NORMAL": 9,
            "POSITION": 8,
            "TEXCOORD_0": 10
          },
          "indices": 11,
          "material": 5,
          "mode": 4
        }
      ]
    },
    {
      "primitives": [
        {
          "attributes": {
            "NORMAL": 13,
            "POSITION": 12,
            "TEXCOORD_0": 14
          },
          "indices": 15,
          "material": 0,
          "mode": 4
        }
      ]
    },
    {
      "primitives": [
        {
          "attributes": {
            "NORMAL": 17,
            "POSITION": 16,
            "TEXCOORD_0": 18
          },
          "indices": 19,
          "material": 3,
          "mode": 4
        }
      ]
    },
    {
      "primitives": [
        {
          "attributes": {
            "NORMAL": 21,
            "POSITION": 20,
            "TEXCOORD_0": 22
          },
          "indices": 23,
          "material": 4,
          "mode": 4
        }
      ]
    }
  ],
  "nodes": [
    {
      "children": [
        1
      ],
      "name": "RootNode (gltf orientation matrix)",
      "rotation": [
        -0.70710678118654746,
        -0,
        -0,
        0.70710678118654757
      ]
    },
    {
      "children": [
        2
      ],
      "name": "RootNode (model correction matrix)"
    },
    {
      "children": [
        3,
        4,
        5,
        6,
        7,
        8
      ],
      "name": "Alien_Plants.obj.cleaner.materialmerger.gles"
    },
    {
      "mesh": 0,
      "name": ""
    },
    {
      "mesh": 1,
      "name": ""
    },
    {
      "mesh": 2,
      "name": ""
    },
    {
      "mesh": 3,
      "name": ""
    },
    {
      "mesh": 4,
      "name": ""
    },
    {
      "mesh": 5,
      "name": ""
    }
  ],
  "samplers": [
    {
      "magFilter": 9729,
      "minFilter": 9987,
      "wrapS": 10497,
      "wrapT": 10497
    }
  ],
  "scene": 0,
  "scenes": [
    {
      "name": "OSG_Scene",
      "nodes": [
        0
      ]
    }
  ],
  "textures": [
    {
      "sampler": 0,
      "source": 0
    },
    {
      "sampler": 0,
      "source": 1
    },
    {
      "sampler": 0,
      "source": 2
    },
    {
      "sampler": 0,
      "source": 3
    },
    {
      "sampler": 0,
      "source": 4
    },
    {
      "sampler": 0,
      "source": 5
    },
    {
      "sampler": 0,
      "source": 6
    },
    {
      "sampler": 0,
      "source": 7
    }
  ]
}

